<?xml version="1.0" standalone="no"?>
<!DOCTYPE svg PUBLIC "-//W3C//DTD SVG 20010904//EN"
 "https://www.w3.org/TR/2001/REC-SVG-20010904/DTD/svg10.dtd">
<svg version="1.0" xmlns="https://www.w3.org/2000/svg"
 width="192.000000pt" height="192.000000pt" viewBox="0 0 192.000000 192.000000"
 preserveAspectRatio="xMidYMid meet">

<g transform="translate(0.000000,192.000000) scale(0.100000,-0.100000)"
fill="#000000" stroke="none">
<path d="M922 1743 c-10 -16 -35 -57 -54 -93 -45 -81 -185 -330 -198 -350 -5
-8 -28 -49 -52 -90 -23 -41 -64 -110 -90 -153 -26 -43 -48 -80 -48 -82 0 -2
-41 -72 -90 -156 -49 -83 -90 -153 -90 -155 0 -2 -38 -67 -85 -145 -47 -78
-85 -144 -85 -147 0 -3 -14 -27 -30 -53 -19 -29 -33 -66 -37 -98 l-6 -51 809
1 c445 1 856 4 914 8 99 6 105 7 108 28 2 12 -13 50 -32 83 -20 34 -36 64 -36
69 0 4 -5 12 -12 19 -13 13 -58 91 -103 177 -15 28 -39 70 -55 95 -16 25 -41
68 -55 95 -15 28 -33 57 -39 65 -6 8 -22 35 -35 60 -13 25 -28 51 -34 58 -5 7
-17 26 -26 42 -59 109 -75 137 -85 150 -7 8 -18 29 -26 45 -8 17 -23 43 -33
58 -11 16 -29 47 -42 70 -12 23 -39 71 -60 107 -21 36 -47 83 -59 105 -12 22
-31 54 -43 72 -13 17 -23 35 -23 40 0 12 -57 100 -83 131 -28 30 -61 28 -85
-5z m92 -185 c17 -31 43 -76 58 -99 15 -24 38 -66 52 -92 13 -26 30 -55 38
-65 9 -9 22 -29 29 -43 27 -50 79 -144 92 -163 27 -44 74 -122 85 -146 7 -14
30 -54 52 -90 22 -36 47 -81 57 -100 9 -19 26 -48 37 -65 29 -42 42 -62 76
-125 17 -30 42 -73 55 -95 14 -22 35 -58 46 -80 12 -22 29 -51 39 -65 43 -63
51 -60 -183 -60 l-212 1 -26 42 c-15 23 -36 60 -48 82 -31 57 -52 92 -86 150
-17 27 -39 66 -48 85 -10 19 -34 60 -53 90 -19 30 -43 73 -54 95 -12 22 -34
60 -50 85 -16 25 -33 52 -36 60 -4 8 -17 29 -29 45 -11 17 -29 46 -39 65 -9
19 -29 54 -44 77 -15 23 -36 57 -48 76 l-21 33 23 40 c13 21 27 46 31 54 4 8
35 64 70 124 35 60 63 112 63 115 0 12 24 31 34 28 5 -2 23 -28 40 -59z m-290
-433 c6 -11 43 -70 83 -131 40 -62 82 -132 95 -155 13 -23 28 -49 33 -58 6 -9
25 -43 43 -76 32 -59 57 -103 136 -242 21 -37 49 -88 62 -112 13 -24 28 -49
34 -56 5 -6 7 -15 3 -18 -3 -4 -102 -7 -219 -7 l-212 0 -27 53 c-15 28 -33 59
-39 67 -7 8 -27 44 -46 80 -18 36 -37 70 -42 77 -5 7 -22 34 -36 62 -15 27
-44 80 -64 118 -21 37 -38 71 -38 76 0 5 25 53 57 106 148 253 153 259 177
216z m-252 -492 c34 -56 41 -67 66 -109 12 -22 34 -57 47 -79 14 -22 35 -58
46 -80 12 -22 28 -48 37 -58 8 -9 12 -20 8 -24 -3 -4 -112 -9 -241 -11 -182
-4 -235 -2 -235 8 0 7 33 65 72 129 40 64 81 131 91 150 34 63 67 111 76 111
5 0 20 -17 33 -37z"/>
</g>
</svg>
